<?xml version="1.0" encoding="UTF-8" standalone="no"?>
<!DOCTYPE svg PUBLIC "-//W3C//DTD SVG 1.1//EN"
 "http://www.w3.org/Graphics/SVG/1.1/DTD/svg11.dtd">
<!-- Generated by graphviz version 9.0.0 (0)
 -->
<!-- Title: Tree Pages: 1 -->
<svg width="330pt" height="188pt"
 viewBox="0.00 0.00 329.87 188.00" xmlns="http://www.w3.org/2000/svg" xmlns:xlink="http://www.w3.org/1999/xlink">
<g id="graph0" class="graph" transform="scale(1 1) rotate(0) translate(4 184)">
<title>Tree</title>
<polygon fill="black" stroke="none" points="-4,4 -4,-184 325.87,-184 325.87,4 -4,4"/>
<!-- A -->
<g id="node1" class="node">
<title>A</title>
<ellipse fill="none" stroke="white" cx="216.94" cy="-162" rx="34.37" ry="18"/>
<text text-anchor="middle" x="216.94" y="-157.32" font-family="Times,serif" font-size="14.00" fill="white">Root</text>
</g>
<!-- B -->
<g id="node2" class="node">
<title>B</title>
<ellipse fill="none" stroke="white" cx="160.94" cy="-90" rx="47" ry="18"/>
<text text-anchor="middle" x="160.94" y="-85.33" font-family="Times,serif" font-size="14.00" fill="white">Child 1</text>
</g>
<!-- A&#45;&gt;B -->
<g id="edge1" class="edge">
<title>A&#45;&gt;B</title>
<path fill="none" stroke="black" d="M204.23,-145.12C197.38,-136.56 188.77,-125.8 181.04,-116.13"/>
<polygon fill="black" stroke="black" points="183.91,-114.11 174.93,-108.49 178.44,-118.48 183.91,-114.11"/>
</g>
<!-- C -->
<g id="node3" class="node">
<title>C</title>
<ellipse fill="none" stroke="white" cx="272.94" cy="-90" rx="47" ry="18"/>
<text text-anchor="middle" x="272.94" y="-85.33" font-family="Times,serif" font-size="14.00" fill="white">Child 2</text>
</g>
<!-- A&#45;&gt;C -->
<g id="edge2" class="edge">
<title>A&#45;&gt;C</title>
<path fill="none" stroke="black" d="M229.64,-145.12C236.49,-136.56 245.1,-125.8 252.83,-116.13"/>
<polygon fill="black" stroke="black" points="255.43,-118.48 258.94,-108.49 249.96,-114.11 255.43,-118.48"/>
</g>
<!-- D -->
<g id="node4" class="node">
<title>D</title>
<ellipse fill="none" stroke="white" cx="75.94" cy="-18" rx="75.94" ry="18"/>
<text text-anchor="middle" x="75.94" y="-13.32" font-family="Times,serif" font-size="14.00" fill="white">Grandchild 1</text>
</g>
<!-- B&#45;&gt;D -->
<g id="edge3" class="edge">
<title>B&#45;&gt;D</title>
<path fill="none" stroke="black" d="M141.65,-73.12C130.87,-64.24 117.23,-53.01 105.17,-43.08"/>
<polygon fill="black" stroke="black" points="107.44,-40.41 97.5,-36.76 102.99,-45.82 107.44,-40.41"/>
</g>
<!-- E -->
<g id="node5" class="node">
<title>E</title>
<ellipse fill="none" stroke="white" cx="245.94" cy="-18" rx="75.94" ry="18"/>
<text text-anchor="middle" x="245.94" y="-13.32" font-family="Times,serif" font-size="14.00" fill="white">Grandchild 2</text>
</g>
<!-- B&#45;&gt;E -->
<g id="edge4" class="edge">
<title>B&#45;&gt;E</title>
<path fill="none" stroke="black" d="M180.22,-73.12C191,-64.24 204.64,-53.01 216.7,-43.08"/>
<polygon fill="black" stroke="black" points="218.88,-45.82 224.37,-36.76 214.43,-40.41 218.88,-45.82"/>
</g>
</g>
</svg>
